# xmcd
#
# Track frame offsets: 
#        150
#        24955
#        46945
#        63780
#        84040
#        101368
#        122605
#        148360
#        164200
#        189451
#        206185
#        236197
#        256412
#        273760
#        305409
#        319890
#
# Disc length: 4795 seconds
#
# Revision: 0
# Processed by: cddbd v1.5.2PL0 Copyright (c) Steve Scherf et al.
# Submitted via: ExactAudioCopy v1.1
#
DISCID=df12b910
DTITLE=Various Artist - Akella Presents - vol.101 - Various Styles Of
DTITLE=Blues  CD2
DYEAR=2017
DGENRE=Blues
TTITLE0=Jim McCarty Blues Band - Two Steps Ahead
TTITLE1=Andrea Maria Farries-Douglas and Blue Touch - Baby Please Don't 
TTITLE1=Go
TTITLE2=The Peacemakers - Cornerstone
TTITLE3=John Blues Boyd - Screaming in the Night
TTITLE4=Thorbjorn Risager and The Black Tornado - I Used To Love You
TTITLE5=John Campbelljohn - Stop Making Excuses
TTITLE6=Bihlman Bros. - Day by Day
TTITLE7=Howard 'Guitar' Luedtke and Blue Max - When The Blues Puts Its H
TTITLE7=old On You
TTITLE8=Devil's Hollow - I Never Knew (Something Wasn't Right)
TTITLE9=Delbert Mcclinton  and Self-Made Men - Doin' What You Do
TTITLE10=Rossington - Too Many Rainy Days
TTITLE11=Main Street Blues - All Your Love (I Miss Loving)
TTITLE12=Bluehouse Project - It's a Good Thing
TTITLE13=Stu Heydon - My Way
TTITLE14=Derek Davis - All The Roads
TTITLE15=Stevie Ray Vaughan And Double Trouble - Riviera Paradise
EXTD=
EXTT0=
EXTT1=
EXTT2=
EXTT3=
EXTT4=
EXTT5=
EXTT6=
EXTT7=
EXTT8=
EXTT9=
EXTT10=
EXTT11=
EXTT12=
EXTT13=
EXTT14=
EXTT15=
PLAYORDER=
